<?xml version="1.0" encoding="utf-8"?>
<!-- Generator: Adobe Illustrator 16.0.0, SVG Export Plug-In . SVG Version: 6.00 Build 0)  -->
<!DOCTYPE svg PUBLIC "-//W3C//DTD SVG 1.1//EN" "http://www.w3.org/Graphics/SVG/1.1/DTD/svg11.dtd">
<svg version="1.1" id="Capa_1" xmlns="http://www.w3.org/2000/svg" xmlns:xlink="http://www.w3.org/1999/xlink" x="0px" y="0px"
	 width="96px" height="96px" viewBox="0 0 96 96" enable-background="new 0 0 96 96" xml:space="preserve">
<g>
	<g>
		<rect fill="#FFFFFF" width="96" height="96"/>
	</g>
	<g>
			<rect x="6.53" y="15.739" transform="matrix(0.9993 -0.038 0.038 0.9993 -1.7832 1.8538)" fill="#FFC700" width="82.75" height="64.25"/>
	</g>
	<g>
		<path fill="#2D2D2D" d="M43.457,33.651l-17.659,0.671L23.659,46.25l16.26-0.618l-1.683,9.169l-16.225,0.617l-3.371,19.13
			L7.241,74.981l8.802-49.43l29.024-1.103L43.457,33.651z"/>
		<path fill="#2D2D2D" d="M88.419,28.999L57.885,64.088l24.514-0.932l-1.618,9.031l-40.39,1.535l1.123-6.41l30.962-34.9
			l-23.08,0.877l1.617-9.066l38.535-1.464L88.419,28.999z"/>
	</g>
</g>
</svg>
